<svg width="511pt" height="511pt" viewBox="0 0 512 511" xmlns="http://www.w3.org/2000/svg" class="icon">
<path d="m488.66 319.17 14.648-14.645c9.2188-9.2227 9.2188-24.227 0-33.449-4.4688-4.4648-10.406-6.9258-16.727-6.9258-4.7422 0-9.2734 1.3867-13.125 3.9688l-3.0859-10.359 15.855-15.859c9.2227-9.2227 9.2227-24.227 0-33.445-8.4883-8.4922-21.871-9.1445-31.141-2l-18.789-63.078c7.5039-7.2266 14.691-14.258 21.465-21.031 19.52-19.523 35.391-40.184 44.691-58.184 15.715-30.422 9.1367-46.684 0.85156-54.969-8.2812-8.2852-24.543-14.859-54.969 0.85547-17.996 9.2969-38.66 25.168-58.18 44.691-6.7734 6.7734-13.809 13.957-21.031 21.461l-63.082-18.789c7.1445-9.2656 6.4922-22.648-1.9961-31.141-9.2227-9.2188-24.227-9.2227-33.445 0l-15.859 15.859-10.363-3.0859c2.582-3.8555 3.9688-8.3867 3.9688-13.129 0-6.3164-2.4609-12.258-6.9258-16.723-9.2188-9.2227-24.227-9.2227-33.445 0l-14.645 14.645-74.645-22.234c-2.6602-0.78906-5.5352-0.0625-7.4922 1.8984l-19.215 19.215c-3.2266 3.2227-2.8008 8.7344 0.87891 11.426l188.34 137.86c-42.465 47.879-83.371 95.816-112.25 130.07l-55.398-21.309c-2.7852-1.0703-5.9375-0.40234-8.0469 1.707l-22.773 22.773c-2.9453 2.9492-2.9453 7.7266 0 10.672l113.86 113.86c2.9062 2.9102 7.7656 2.9102 10.676 0l22.77-22.77c2.1094-2.1094 2.7812-5.2656 1.707-8.0508l-21.305-55.395c34.25-28.879 82.184-69.785 130.07-112.25l14.961 20.445c2.6562 3.6289 8.043 4.0977 11.301 1.0039 2.7148-2.5781 3.0898-6.9023 0.88281-9.918l-15.816-21.609c25.039-22.348 49.766-44.895 72.199-66.141l71.113 238.73-9.8086 9.8047-97.738-133.53c-2.4609-3.3633-7.1836-4.0938-10.547-1.6328-3.3672 2.4648-4.0977 7.1875-1.6328 10.551l102.94 140.64c2.6914 3.6797 8.2031 4.1055 11.426 0.87891l19.215-19.215c1.9609-1.957 2.6875-4.8359 1.8984-7.4922zm-207.38-282.22c3.2969-3.2969 8.8008-3.2969 12.098 0 3.3359 3.3359 3.3359 8.7617 0 12.098l-3.5391 3.5391-18.645-5.5547zm-62.625-17.078c3.332-3.3359 8.7617-3.3359 12.098 0 3.3359 3.3359 3.3359 8.7617 0 12.098l-2.3281 2.3242-18.641-5.5508zm-109.77 7.293 9.8086-9.8047 238.73 71.109c-21.246 22.438-43.793 47.164-66.145 72.203zm3.8281 269.45 45.957 17.676c-11.527 13.727-20.367 24.348-25.582 30.633l-34.344-34.344zm31.098 59.031c26.312-31.746 165.39-198.59 257.03-290.23 18.18-18.184 38.023-33.473 54.434-41.949 12.32-6.3672 28.805-12.156 37.367-3.5938s2.7695 25.047-3.5938 37.367c-8.4766 16.41-23.77 36.25-41.953 54.434-91.625 91.625-258.48 230.71-290.22 257.03zm72.09 44.156-13.965 13.965-34.344-34.344c6.2812-5.2109 16.906-14.051 30.633-25.578zm264.64-118.04c3.3359-3.3359 8.7617-3.3359 12.098 0 3.3359 3.3359 3.3359 8.7617 0 12.098l-8.8711 8.8711-5.5547-18.641zm-17.078-62.625c3.332-3.3359 8.7617-3.332 12.098 0 3.2969 3.2969 3.2969 8.8008 0 12.098l-10.086 10.086-5.5547-18.645z"/>
<path d="m453.08 435.2-64.41 64.41c-2.7461 2.75-2.9297 7.2891-0.40234 10.242 2.8242 3.2969 8.0078 3.5039 11.078 0.43359l64.41-64.41c2.9492-2.9492 2.9492-7.7266 0-10.676-2.9453-2.9453-7.7266-2.9453-10.676 0z"/>
<path d="m431.55 413.67c2.9492-2.9453 2.9492-7.7266 0-10.672-2.9453-2.9492-7.7266-2.9492-10.672 0l-40.258 40.254c-2.7461 2.75-2.9297 7.2891-0.40234 10.242 2.8242 3.2969 8.0078 3.5039 11.078 0.43359z"/>
<path d="m407.4 373.42c2.9492-2.9492 2.9492-7.7305 0-10.676-2.9492-2.9492-7.7266-2.9492-10.676 0l-28.18 28.18c-2.7461 2.7461-2.9297 7.2891-0.39844 10.242 2.8203 3.2969 8.0039 3.5039 11.074 0.43359z"/>
<path d="m77.297 52.766c-2.9492-2.9453-7.7305-2.9453-10.676 0l-64.41 64.414c-2.9492 2.9453-2.9492 7.7266 0 10.672 2.9062 2.9062 7.7656 2.9062 10.676 0l64.41-64.41c2.9453-2.9492 2.9453-7.7266 0-10.676z"/>
<path d="m109.5 84.973c-2.9492-2.9492-7.7266-2.9492-10.672 0l-40.258 40.258c-2.75 2.7461-2.9297 7.2852-0.40234 10.238 2.8242 3.2969 8.0039 3.5039 11.074 0.43359l40.258-40.254c2.9492-2.9492 2.9492-7.7305 0-10.676z"/>
<path d="m110.9 147.98c2.9102 2.9062 7.7656 2.9062 10.676 0l28.18-28.18c2.9453-2.9492 2.9453-7.7266 0-10.676-2.9492-2.9453-7.7266-2.9453-10.676 0l-28.18 28.18c-2.9453 2.9492-2.9453 7.7266 0 10.676z"/>
</svg>